<?xml version="1.0" encoding="UTF-8" standalone="no"?>
<!-- Created with Inkscape (http://www.inkscape.org/) -->

<svg
   xmlns:dc="http://purl.org/dc/elements/1.1/"
   xmlns:cc="http://creativecommons.org/ns#"
   xmlns:rdf="http://www.w3.org/1999/02/22-rdf-syntax-ns#"
   xmlns:svg="http://www.w3.org/2000/svg"
   xmlns="http://www.w3.org/2000/svg"
   xmlns:xlink="http://www.w3.org/1999/xlink"
   xmlns:sodipodi="http://sodipodi.sourceforge.net/DTD/sodipodi-0.dtd"
   xmlns:inkscape="http://www.inkscape.org/namespaces/inkscape"
   width="210mm"
   height="297mm"
   viewBox="0 0 210 297"
   version="1.1"
   id="svg8"
   inkscape:version="0.92.3 (2405546, 2018-03-11)"
   sodipodi:docname="services-all.svg"
   inkscape:export-filename="C:\Users\monika\farbenweg\site-farbenweg\static\services\service-icon-1.png"
   inkscape:export-xdpi="127.51"
   inkscape:export-ydpi="127.51">
  <defs
     id="defs2">
    <linearGradient
       inkscape:collect="always"
       id="linearGradient1159">
      <stop
         style="stop-color:#999999;stop-opacity:1;"
         offset="0"
         id="stop1155" />
      <stop
         style="stop-color:#999999;stop-opacity:0;"
         offset="1"
         id="stop1157" />
    </linearGradient>
    <linearGradient
       inkscape:collect="always"
       id="linearGradient1062">
      <stop
         style="stop-color:#99dd00;stop-opacity:1;"
         offset="0"
         id="stop1058" />
      <stop
         style="stop-color:#99dd00;stop-opacity:0;"
         offset="1"
         id="stop1060" />
    </linearGradient>
    <linearGradient
       inkscape:collect="always"
       id="linearGradient971">
      <stop
         style="stop-color:#ff8080;stop-opacity:1"
         offset="0"
         id="stop967" />
      <stop
         style="stop-color:#ffaaaa;stop-opacity:0;"
         offset="1"
         id="stop969" />
    </linearGradient>
    <inkscape:path-effect
       effect="spiro"
       id="path-effect854"
       is_visible="true" />
    <linearGradient
       inkscape:collect="always"
       id="linearGradient844">
      <stop
         style="stop-color:#0077dd;stop-opacity:1;"
         offset="0"
         id="stop840" />
      <stop
         style="stop-color:#0077dd;stop-opacity:0;"
         offset="1"
         id="stop842" />
    </linearGradient>
    <linearGradient
       inkscape:collect="always"
       xlink:href="#linearGradient844"
       id="linearGradient903"
       x1="80.039688"
       y1="237"
       x2="99.960312"
       y2="237"
       gradientUnits="userSpaceOnUse"
       gradientTransform="matrix(1.0044863,0,0,1.0043158,8.5889648,-3.9080223)" />
    <linearGradient
       inkscape:collect="always"
       xlink:href="#linearGradient971"
       id="linearGradient973"
       x1="110"
       y1="237.03969"
       x2="129.92063"
       y2="237.03969"
       gradientUnits="userSpaceOnUse" />
    <linearGradient
       inkscape:collect="always"
       xlink:href="#linearGradient1062"
       id="linearGradient1064"
       x1="140"
       y1="237.03969"
       x2="159.92063"
       y2="237.03969"
       gradientUnits="userSpaceOnUse" />
    <linearGradient
       inkscape:collect="always"
       xlink:href="#linearGradient1159"
       id="linearGradient1161"
       x1="170"
       y1="237.03969"
       x2="189.92063"
       y2="237.03969"
       gradientUnits="userSpaceOnUse" />
  </defs>
  <sodipodi:namedview
     id="base"
     pagecolor="#ffffff"
     bordercolor="#666666"
     borderopacity="1.0"
     inkscape:pageopacity="0.0"
     inkscape:pageshadow="2"
     inkscape:zoom="2.1791375"
     inkscape:cx="412.07378"
     inkscape:cy="299.78283"
     inkscape:document-units="mm"
     inkscape:current-layer="layer1"
     showgrid="false"
     inkscape:window-width="1920"
     inkscape:window-height="1001"
     inkscape:window-x="-9"
     inkscape:window-y="-9"
     inkscape:window-maximized="1" />
  <metadata
     id="metadata5">
    <rdf:RDF>
      <cc:Work
         rdf:about="">
        <dc:format>image/svg+xml</dc:format>
        <dc:type
           rdf:resource="http://purl.org/dc/dcmitype/StillImage" />
        <dc:title></dc:title>
      </cc:Work>
    </rdf:RDF>
  </metadata>
  <g
     inkscape:label="Ebene 1"
     inkscape:groupmode="layer"
     id="layer1">
    <ellipse
       style="opacity:1;fill:url(#linearGradient903);fill-opacity:1;stroke:none;stroke-width:0.07937501;stroke-miterlimit:4;stroke-dasharray:none;stroke-opacity:0;paint-order:fill markers stroke"
       id="path838"
       cx="98.992737"
       cy="234.11479"
       inkscape:export-xdpi="127.51"
       inkscape:export-ydpi="127.51"
       transform="matrix(0.99933293,0.03651968,-0.03653211,0.99933248,0,0)"
       rx="10.004998"
       ry="10.003298" />
    <g
       id="Icons"
       transform="matrix(0.2073852,0.02750527,-0.02745105,0.20690586,83.635286,225.65718)"
       style="fill:#162b91;fill-opacity:1;stroke:#162b91;stroke-width:2.39280319;stroke-miterlimit:4;stroke-dasharray:none"
       inkscape:export-xdpi="127.51"
       inkscape:export-ydpi="127.51">
      <path
         id="path874"
         d="M 84.888,7.3 C 83.8517,7.34772 82.8658,7.76079 82.105,8.466 L 39.228,48.7 27.166,62.558 c -1.0393,-0.3205 -2.1205,-0.4843 -3.208,-0.486 -2.8675,-0.0082 -5.6202,1.1256 -7.65,3.151 -3.1,3.2 -2.2,7 -2.7,10.7 -0.3504,4.1513 -3.1443,7.6928 -7.1,9 2.56825,1.9173 5.6952,2.9379 8.9,2.905 6.078,0 12.219,-3.323 16.2,-7.306 2.7112,-2.7341 3.7703,-6.7003 2.783,-10.422 L 48.417,57.891 88.84,14.985 C 90.4767,13.2068 90.3619,10.4384 88.5837,8.80171 88.5663,8.78566 88.5487,8.76976 88.531,8.754 87.5899,7.75675 86.2571,7.22483 84.888,7.3 Z m -54.81,71.929 c -3.264,3.215 -8.792,6.605 -14.671,6.605 -0.4067,0 -0.8067,-0.017 -1.2,-0.051 -0.0052,-0.0017 -0.0081,-0.0074 -0.0064,-0.0126 10e-4,-0.003 0.0034,-0.0054 0.0064,-0.0064 2.7077,-1.0333 5.1566,-2.6463 7.175,-4.726 0.3695,-0.4117 0.3352,-1.045 -0.0765,-1.4145 -0.4117,-0.3695 -1.045,-0.3352 -1.4145,0.0765 -2.3765,2.4023 -5.3827,4.0851 -8.673,4.855 -0.0055,5e-4 -0.0104,-0.0036 -0.0109,-0.0091 -2e-4,-0.0029 8e-4,-0.0058 0.0029,-0.0079 2.5607,-2.0666 4.1502,-5.1022 4.39,-8.384 0.138,-1.04 0.176,-2.054 0.212,-3.034 0.1,-2.617 0.173,-4.683 1.916,-6.483 3.4741,-3.4443 9.0827,-3.4201 12.527,0.054 0.0931,0.094 0.1842,0.19 0.273,0.288 3.1403,3.5501 2.9423,8.9398 -0.45,12.25 z M 33.648,68.1 C 32.6754,66.0819 31.0861,64.4254 29.11,63.37 l 8.971,-10.314 5.981,5.98 z m 13.385,-11.649 -1.459,1.27 -6.174,-6.178 1.238,-1.422 0.816,-0.767 6.318,6.317 z M 87.376,13.623 49.139,54.215 42.909,47.985 83.5,9.9 c 1.0665,-0.91454 2.6696,-0.80366 3.6,0.249 1.631,1.725 0.617,3.102 0.276,3.474 z"
         inkscape:connector-curvature="0"
         style="fill:#162b91;fill-opacity:1;stroke:#162b91;stroke-width:2.39280319;stroke-miterlimit:4;stroke-dasharray:none" />
    </g>
    <circle
       style="opacity:1;fill:url(#linearGradient973);fill-opacity:1;stroke:none;stroke-width:0.07937501;stroke-miterlimit:4;stroke-dasharray:none;stroke-opacity:0;paint-order:fill markers stroke"
       id="path838-2"
       cx="119.96031"
       cy="237.03969"
       r="9.9603138"
       inkscape:export-xdpi="127.51"
       inkscape:export-ydpi="127.51" />
    <g
       id="Icons-8"
       transform="matrix(0.22372211,0,0,0.22372211,110.82606,227.12942)"
       style="stroke:#162b91;stroke-width:2.23491549;stroke-miterlimit:4;stroke-dasharray:none;fill:#162b91"
       inkscape:export-xdpi="127.51"
       inkscape:export-ydpi="127.51">
      <path
         id="path990"
         d="m 37,53.092 h 24 c 1.6569,0 3,1.3431 3,3 0,1.6569 -1.3431,3 -3,3 H 43 c -0.5523,0 -1,0.4477 -1,1 0,0.5523 0.4477,1 1,1 h 18 c 2.7614,0 5,-2.2386 5,-5 0,-2.7614 -2.2386,-5 -5,-5 H 37 c -1.8036,0.015 -3.5725,0.4974 -5.134,1.4 L 3.563,66.1 c -0.50798,0.2167 -0.74408,0.8042 -0.52735,1.3122 0.21674,0.508 0.80424,0.7441 1.31222,0.5274 C 4.37583,67.9276 4.40324,67.9144 4.43,67.9 L 32.793,54.26 C 34.0681,53.5073 35.5193,53.1044 37,53.092 Z"
         inkscape:connector-curvature="0"
         style="stroke:#162b91;stroke-width:2.23491549;stroke-miterlimit:4;stroke-dasharray:none;fill:#162b91" />
      <path
         id="path992"
         d="m 88,42.99 c -0.9201,-0.0194 -1.8251,0.2355 -2.6,0.732 l -17.1,9.8 c -0.4799,0.2761 -0.6451,0.8891 -0.369,1.369 0.2761,0.4799 0.8891,0.6451 1.369,0.369 l 17.158,-9.838 c 0.4585,-0.2966 0.9961,-0.4472 1.542,-0.432 1.6569,0 3,1.3431 3,3 -0.0397,0.8869 -0.4176,1.725 -1.056,2.342 L 62.518,70.383 C 61.9942,70.7789 61.3566,70.9953 60.7,71 H 42 c -10.228,0 -18.542,3.127 -24.709,9.3 -0.4251,0.3525 -0.484,0.983 -0.1314,1.4081 0.3525,0.4251 0.9829,0.484 1.4081,0.1314 C 18.6158,81.7996 18.6601,81.7552 18.7,81.707 24.481,75.928 32.319,73 42,73 h 18.7 c 1.0771,-0.0063 2.124,-0.3567 2.988,-1 L 91.189,51.9 91.307,51.8 C 92.3559,50.8063 92.9652,49.4354 93,47.991 92.9972,45.2306 90.7604,42.9933 88,42.99 Z"
         inkscape:connector-curvature="0"
         style="stroke:#162b91;stroke-width:2.23491549;stroke-miterlimit:4;stroke-dasharray:none;fill:#162b91" />
      <path
         id="path994"
         d="m 44.277,44.215 c 0.616,0 1.182,-0.01 1.719,-0.017 l 0.082,0.1 c 1.0846,1.1065 1.7621,2.5479 1.922,4.089 0.0094,0.0375 0.0215,0.0742 0.036,0.11 0.0136,0.0546 0.0313,0.1081 0.053,0.16 0.0299,0.0634 0.0664,0.1234 0.109,0.179 0.0296,0.0426 0.0631,0.0825 0.1,0.119 0.0525,0.0503 0.1109,0.094 0.174,0.13 0.0402,0.0288 0.0827,0.0542 0.127,0.076 0.0765,0.03 0.1565,0.0505 0.238,0.061 0.0355,0.0109 0.0716,0.0199 0.108,0.027 h 0.05 c 0.0451,0 0.0902,-0.0031 0.135,-0.009 0.0378,-0.0107 0.0748,-0.0238 0.111,-0.039 0.0691,-0.0153 0.1362,-0.0385 0.2,-0.069 0.0523,-0.0288 0.1018,-0.0622 0.148,-0.1 0.1021,-0.0726 0.1874,-0.1664 0.25,-0.275 0.0344,-0.0553 0.0632,-0.114 0.086,-0.175 0.0207,-0.0587 0.0355,-0.1193 0.044,-0.181 0.0115,-0.0357 0.0205,-0.0721 0.027,-0.109 0.0652,-3.8016 1.9759,-7.3339 5.122,-9.469 1.186,0.057 2.641,0.143 4.239,0.143 4.455,0 10.013,-0.675 13.9,-4.572 6.6,-6.8 5,-19.2 5,-19.2 -1.1067,-0.1215 -2.2196,-0.1786 -3.333,-0.171 -4.147,0 -11.222,0.726 -15.667,5.171 -4.6,4.717 -5.217,12.441 -5.23,16.949 -2.5298,1.747 -4.4205,4.2718 -5.385,7.191 -0.3159,-0.462 -0.6581,-0.9054 -1.025,-1.328 -0.115,-0.138 -0.232,-0.279 -0.348,-0.422 0.246,-3.693 0.615,-9.7 -3.413,-14.29 -3.21,-3.66 -8.553,-4.344 -12.1,-4.344 -1.2044,-0.0076 -2.4077,0.074 -3.6,0.244 0,0 -1.357,10.515 4.1,15.7 4.128,3.935 8.612,4.321 12.021,4.321 z m 16.387,-22.6 c 3.989,-3.989 10.642,-4.585 14.253,-4.585 0.55,0 1.046,0.014 1.47,0.033 0.155,3.374 -0.029,11.264 -4.553,15.925 -2.714,2.719 -6.682,3.985 -12.487,3.985 -0.627,0 -1.227,-0.014 -1.8,-0.034 3.562,-4.156 6.469,-6.8 9.061,-8.235 0.4832,-0.2676 0.6581,-0.8763 0.3905,-1.3595 -0.2676,-0.4833 -0.8762,-0.6581 -1.3595,-0.3905 -2.79,1.545 -5.858,4.315 -9.562,8.627 0.241,-6.373 1.772,-11.081 4.587,-13.967 z m -30.641,4.4 c 0.49,-0.034 1.076,-0.058 1.726,-0.058 2.757,0 7.8,0.475 10.6,3.663 3,3.422 3.174,7.845 3.012,11.278 -1.9681,-3.2015 -4.5586,-5.9756 -7.618,-8.158 -0.4496,-0.3209 -1.0741,-0.2166 -1.395,0.233 -0.3209,0.4496 -0.2166,1.0741 0.233,1.395 2.923,2.0942 5.3874,4.7634 7.242,7.844 -3.34,-0.042 -6.863,-0.6 -10.193,-3.761 -3.505,-3.329 -3.719,-9.543 -3.607,-12.437 z"
         inkscape:connector-curvature="0"
         style="stroke:#162b91;stroke-width:2.23491549;stroke-miterlimit:4;stroke-dasharray:none;fill:#162b91" />
    </g>
    <circle
       style="opacity:1;fill:url(#linearGradient1064);fill-opacity:1;stroke:none;stroke-width:0.07937501;stroke-miterlimit:4;stroke-dasharray:none;stroke-opacity:0;paint-order:fill markers stroke"
       id="path838-2-0"
       cx="149.96031"
       cy="237.03969"
       r="9.9603148"
       inkscape:export-xdpi="127.51"
       inkscape:export-ydpi="127.51" />
    <g
       id="Icons-4"
       transform="matrix(0.21267254,0,0,0.21267815,142.80298,225.69529)"
       style="fill:#162b91;stroke:#162b91;stroke-width:2.35100126;stroke-miterlimit:4;stroke-dasharray:none"
       inkscape:export-xdpi="127.51"
       inkscape:export-ydpi="127.51">
      <path
         id="path1066"
         d="m 81.3279,42.7314 c 0.9764,-6.0943 0.9021,-12.3108 -0.2195,-18.38 l -0.1,-0.501 -0.4649,-0.2119 c -5.5996,-2.4637 -11.5759,-3.9616 -17.6756,-4.43 -4.151,-4.4874 -9.031,-8.2403 -14.4337,-11.1 L 47.98,7.877 47.5249,8.1094 C 42.0738,10.995 37.1563,14.7916 32.9852,19.335 27.0026,19.746 21.1288,21.1407 15.6,23.4629 l -0.4678,0.2051 -0.1084,0.499 c -0.1247,0.5771 -2.0766,9.8789 -0.4614,18.6621 -3.3541,4.9211 -5.88117,10.3574 -7.4813,16.0938 l -0.13,0.4941 0.3242,0.3945 c 0.3711,0.4522 6.3524,7.6353 14.1433,11.8364 1.7741,5.721 4.4784,11.1107 8.0042,15.9527 L 29.7294,88.0088 30.24,88 c 6.0424,-0.2008 12.009,-1.4073 17.6547,-3.57 5.6454,2.1627 11.6119,3.3693 17.6541,3.57 l 0.5108,0.0088 0.3066,-0.4082 c 3.5023,-4.8119 6.1953,-10.1634 7.9727,-15.8433 7.8894,-4.185 13.9714,-11.49 14.3457,-11.9458 l 0.3242,-0.3945 -0.13,-0.4941 C 87.269,53.1473 84.7178,47.6768 81.3279,42.7314 Z m -2.09,-17.4794 c 0.8468,5.0674 0.9793,10.2284 0.3938,15.3325 -2.3541,-2.9142 -5.5075,-5.0781 -9.0735,-6.2261 -0.684,-0.1934 -1.3779,-0.35 -2.0786,-0.4692 0.0685,-0.8745 0.0787,-1.7526 0.0307,-2.6285 -0.339,-3.6012 -1.6982,-7.031 -3.9182,-9.8867 5.0368,0.6149 9.9651,1.9198 14.6462,3.878 z M 46.8735,62.9277 c -0.3676,0.7521 -0.7867,1.478 -1.2544,2.1723 -1.9703,2.8954 -4.7728,5.1248 -8.0371,6.3936 -1.0327,-3.3492 -1.0245,-6.933 0.0235,-10.2774 0.2542,-0.7977 0.5632,-1.5769 0.9247,-2.332 0.7435,-0.2004 1.4744,-0.445 2.1888,-0.7324 1.5146,1.3424 3.3718,2.2383 5.3652,2.5882 0.219,0.7444 0.4825,1.475 0.7893,2.1877 z M 43.5928,38.4761 c -0.0136,-0.928 0.0438,-1.8557 0.1718,-2.7749 0.4837,-3.3173 1.9201,-6.4228 4.1348,-8.9395 2.3414,2.6121 3.834,5.874 4.28,9.3535 0.0988,0.7967 0.1448,1.5991 0.1376,2.4019 -0.3476,0.3032 -0.6783,0.6225 -1.0005,0.9507 -2.1711,-0.6963 -4.5058,-0.696 -6.6767,0.001 C 44.303,39.126 43.957,38.792 43.5928,38.4761 Z M 47.98,58.915 c -4.9621,1e-4 -8.9846,-4.0224 -8.9847,-8.9845 -1e-4,-4.9621 4.0224,-8.9846 8.9845,-8.9847 4.9619,-10e-5 8.9845,4.0223 8.9847,8.9842 2e-4,4.9621 -4.0221,8.9848 -8.9842,8.985 -10e-5,0 -2e-4,0 -3e-4,0 z M 54.1646,40.86 c 0.0579,-0.461 0.1041,-0.9229 0.1265,-1.3882 0.6235,-0.5024 1.2795,-0.9631 1.9638,-1.3789 3.0053,-1.8099 6.4896,-2.664 9.9912,-2.4492 -0.5988,3.2987 -2.1424,6.3527 -4.4434,8.791 -0.6379,0.6674 -1.3258,1.2852 -2.0576,1.8481 -0.4956,-0.0942 -0.9942,-0.16 -1.4942,-0.2124 -0.7964,-2.1143 -2.2228,-3.933 -4.0863,-5.2104 z m -16.4485,5.19 c -0.5143,0.0493 -1.0275,0.1113 -1.5374,0.2046 -0.7184,-0.5553 -1.3941,-1.1637 -2.0215,-1.82 -2.3012,-2.4386 -3.8448,-5.4929 -4.4436,-8.792 3.5014,-0.215 6.9854,0.6394 9.99,2.45 0.6609,0.4009 1.2955,0.8435 1.9,1.3252 0.0255,0.4946 0.08,0.9853 0.1476,1.4746 -1.8362,1.271 -3.2433,3.0695 -4.0351,5.1576 z M 32.7,45.8037 c 0.3472,0.37 0.72,0.7061 1.0906,1.0459 -0.3885,0.1211 -0.78,0.2275 -1.1629,0.3731 -3.7166,1.3928 -6.9129,3.8984 -9.1529,7.1748 -0.6607,-0.4564 -1.2895,-0.9573 -1.8822,-1.4991 -2.5719,-2.6172 -4.2744,-5.9637 -4.8755,-9.5835 2.4549,-3.2353 5.519,-5.9726 9.2329,-7.0327 0.5834,-0.167 1.1749,-0.304 1.7722,-0.4106 0.6492,3.7273 2.3803,7.1813 4.9778,9.9321 z m 0.6377,3.2891 c 0.7649,-0.2841 1.548,-0.5163 2.3442,-0.6949 0.4351,0.3111 0.8874,0.5943 1.3468,0.8648 -0.0134,0.2222 -0.0338,0.4424 -0.0338,0.6675 -0.0015,1.8483 0.4665,3.6666 1.36,5.2846 -0.437,0.6207 -0.8369,1.2667 -1.1975,1.9346 -0.8182,0.1784 -1.6477,0.3001 -2.4827,0.3643 -3.296,0.2323 -6.5898,-0.4827 -9.4929,-2.0606 2.0069,-2.9019 4.8527,-5.1211 8.1561,-6.3603 z M 49.874,60.74 c 2.0234,-0.3548 3.906,-1.2725 5.4319,-2.6479 0.613,0.2411 1.2381,0.4503 1.8727,0.627 0.3966,0.8063 0.7328,1.641 1.006,2.497 1.0402,3.3222 1.0545,6.8809 0.041,10.2114 C 55.0261,70.1503 52.2806,67.947 50.3408,65.1 49.873,64.4056 49.4537,63.6798 49.0859,62.9276 49.3923,62.2149 49.6555,61.4844 49.874,60.74 Z m 8.686,-3.7385 c -0.3142,-0.5715 -0.6585,-1.1259 -1.0317,-1.6607 0.9413,-1.6479 1.4363,-3.513 1.4362,-5.4108 0,-0.2246 -0.02,-0.4444 -0.0337,-0.6656 0.4463,-0.2617 0.8855,-0.5356 1.3082,-0.8364 0.7507,0.1745 1.4896,0.3965 2.2122,0.6646 3.2849,1.2331 6.1174,3.4354 8.1222,6.3149 -2.9573,1.5798 -6.3106,2.2643 -9.6505,1.97 -0.7951,-0.0732 -1.5844,-0.1988 -2.3629,-0.376 z m 4.6,-9.7788 c -0.3406,-0.1294 -0.6888,-0.2217 -1.0335,-0.3316 0.3861,-0.352 0.7731,-0.7031 1.134,-1.0874 2.5969,-2.7509 4.3276,-6.2047 4.9768,-9.9316 0.5973,0.1066 1.1888,0.2435 1.7723,0.41 3.6757,1.0493 6.7158,3.7407 9.1579,6.9326 -0.8235,3.7588 -2.3611,7.3086 -5.0886,9.76 -0.5658,0.5014 -1.163,0.966 -1.7881,1.3911 -2.2391,-3.261 -5.4267,-5.7547 -9.1308,-7.1431 z M 61.2666,21.1914 c 0.2146,0 0.43,0.0112 0.6445,0.0156 2.4917,3.0108 4.3716,6.4673 4.6035,10.1787 0.0419,0.7547 0.0355,1.5113 -0.0192,2.2652 -3.9456,-0.2673 -7.8781,0.684 -11.2654,2.7251 -0.3378,0.2016 -0.6505,0.4336 -0.9739,0.6533 -0.0285,-0.3916 -0.0409,-0.7827 -0.0925,-1.1748 -0.5013,-3.9233 -2.1961,-7.5978 -4.855,-10.5259 0.557,-0.5103 1.1459,-0.9846 1.7632,-1.42 3.043,-1.921 6.5993,-2.8688 10.1948,-2.7172 z M 47.98,10.1348 c 4.438,2.4523 8.5177,5.5032 12.1246,9.0669 -3.6134,0.0335 -7.1425,1.0963 -10.1734,3.0639 -0.7166,0.5055 -1.3987,1.0582 -2.0418,1.6544 -0.5283,-0.4755 -1.0818,-0.9223 -1.658,-1.3384 -3.111,-2.0814 -6.7614,-3.2105 -10.5042,-3.249 3.636,-3.6215 7.7602,-6.7174 12.2528,-9.1978 z M 33.9551,21.3232 c 4.0129,-0.0634 8.0049,0.6524 11.1084,2.8829 0.4926,0.3542 0.9669,0.7332 1.4209,1.1357 -2.5193,2.8222 -4.1532,6.3228 -4.6983,10.0664 -0.0777,0.5254 -0.1134,1.0508 -0.15,1.5757 -0.3018,-0.2031 -0.5918,-0.42 -0.906,-0.6079 -3.3871,-2.0416 -7.3198,-2.9932 -11.2656,-2.726 -0.0546,-0.7537 -0.061,-1.5102 -0.0192,-2.2647 0.229,-3.6636 2.0654,-7.0787 4.5098,-10.0621 z m -17.0762,3.7735 c 4.6215,-1.8489 9.4709,-3.0672 14.4175,-3.6221 -2.1805,2.8335 -3.5143,6.2263 -3.8472,9.7861 -0.048,0.8757 -0.0377,1.7537 0.0308,2.628 -0.7008,0.1194 -1.3946,0.2763 -2.0786,0.47 -3.5941,1.1598 -6.769,3.3486 -9.1314,6.2951 -0.5378,-5.1883 -0.3327,-10.4267 0.6089,-15.5571 z M 20.78,68.9536 C 16.4566,66.1728 12.544,62.8 9.1565,58.9336 c 1.4067,-4.7194 3.4327,-9.2315 6.0251,-13.4185 0.8337,3.3598 2.5817,6.423 5.05,8.85 0.6912,0.6324 1.4264,1.2149 2.2,1.7432 -0.3321,0.6111 -0.6318,1.2392 -0.898,1.8818 -1.3122,3.5034 -1.574,7.3135 -0.7536,10.9635 z m 2.602,-10.2 c 0.2255,-0.5464 0.4778,-1.0752 0.7516,-1.5893 2.8467,1.5713 6.0457,2.3943 9.2973,2.392 0.458,0 0.9183,-0.0159 1.3808,-0.0478 0.4568,-0.0313 0.9046,-0.103 1.3545,-0.1641 -0.1629,0.4234 -0.3354,0.8423 -0.4707,1.2793 -1.1727,3.7411 -1.1778,7.7507 -0.0144,11.4947 -0.5932,0.1557 -1.194,0.2807 -1.8,0.3745 -3.6093,0.562 -7.3162,-0.4849 -10.7369,-2.2163 -0.9958,-3.9079 -1.2262,-7.9778 0.2376,-11.5227 z m 7.338,27.2269 c -2.8413,-4.0521 -5.1297,-8.4648 -6.8049,-13.1216 2.5042,1.1254 5.21,1.7331 7.9549,1.7866 0.7751,2e-4 1.5492,-0.0586 2.3154,-0.1758 0.7372,-0.1168 1.4672,-0.2751 2.1866,-0.4741 0.2898,0.685 0.6177,1.3533 0.9824,2.0015 1.9125,3.13 4.6858,5.6432 7.9884,7.2392 -4.7293,1.5659 -9.6476,2.4889 -14.6228,2.7442 z m 17.1748,-3.75 c -3.64,-1.6177 -6.9309,-3.9263 -8.8017,-7.2217 -0.3014,-0.5311 -0.5753,-1.0774 -0.8206,-1.6367 3.6545,-1.4117 6.7925,-3.9027 8.9964,-7.1416 0.2587,-0.3775 0.48,-0.7725 0.7111,-1.1636 0.2312,0.3911 0.4529,0.7861 0.7117,1.1636 2.1743,3.1928 5.2575,5.6589 8.85,7.0786 -0.2511,0.5813 -0.5331,1.1487 -0.8446,1.7 -1.8711,3.2951 -5.1624,5.6037 -8.8026,7.2214 z m 17.1748,3.75 c -4.9752,-0.2553 -9.8935,-1.1781 -14.6228,-2.7437 3.303,-1.5961 6.0765,-4.1096 7.989,-7.24 0.3727,-0.6633 0.7068,-1.3476 1.0008,-2.0493 0.7681,0.221 1.5489,0.3953 2.3381,0.5219 0.7662,0.1177 1.5402,0.1765 2.3154,0.1758 2.6728,-0.0497 5.3092,-0.6288 7.7569,-1.7036 -1.6742,4.6262 -3.9532,9.0106 -6.7777,13.0389 z m 7.55,-15.607 c -3.2113,1.7753 -6.8925,2.5157 -10.5405,2.12 -0.6596,-0.1046 -1.3129,-0.2461 -1.9567,-0.4239 1.1488,-3.73 1.1392,-7.7209 -0.0277,-11.4453 -0.15,-0.4834 -0.3371,-0.9482 -0.5207,-1.4155 0.3928,0.0566 0.7817,0.1289 1.18,0.1626 0.5703,0.0478 1.1377,0.0719 1.7022,0.0723 3.2049,10e-4 6.3591,-0.8004 9.1748,-2.3311 0.2867,0.5337 0.5461,1.0816 0.7773,1.6416 1.4756,3.5744 1.2279,7.6818 0.2117,11.6193 z m 2.3651,-1.3007 c 0.8481,-3.6858 0.595,-7.5396 -0.7279,-11.0828 -0.2724,-0.6557 -0.5798,-1.2965 -0.9206,-1.9194 0.7278,-0.4893 1.4223,-1.0265 2.0788,-1.6079 2.5804,-2.4659 4.411,-5.6111 5.2808,-9.0727 2.6327,4.2214 4.687,8.7771 6.1079,13.545 -3.4369,3.9248 -7.4167,7.3385 -11.819,10.1378 z"
         inkscape:connector-curvature="0"
         style="fill:#162b91;stroke:#162b91;stroke-width:2.35100126;stroke-miterlimit:4;stroke-dasharray:none" />
    </g>
    <ellipse
       style="opacity:1;fill:url(#linearGradient1161);fill-opacity:1;stroke:none;stroke-width:0.07937501;stroke-miterlimit:4;stroke-dasharray:none;stroke-opacity:0;paint-order:fill markers stroke"
       id="path838-2-0-4"
       cx="179.96031"
       cy="237.03969"
       inkscape:export-xdpi="127.51"
       inkscape:export-ydpi="127.51"
       rx="9.9603138"
       ry="9.9603148" />
    <g
       id="Icons-7"
       transform="matrix(0.21963584,0.06863209,-0.06860011,0.2197387,173.23917,222.58937)"
       style="fill:#162b91;stroke:#162b91;stroke-width:2.17246246;stroke-miterlimit:4;stroke-dasharray:none"
       inkscape:export-xdpi="127.51"
       inkscape:export-ydpi="127.51">
      <path
         id="path1132"
         d="m 78.574,8.671 c -1.269,0.529 -4.535,3.97 -5.481,4.987 -5.38,5.381 -12.825,14.383 -16.275,20.384 l -12,-11.913 c -1.1481,-1.1315 -2.9919,-1.1315 -4.14,0 L 8.943,53.87 C 7.79977,54.9767 7.77014,56.8006 8.87681,57.9438 8.89851,57.9662 8.92058,57.9883 8.943,58.01 L 33.405,82.5 44.622,71.892 c 0.055,-0.052 0.061,-0.046 0.015,0.013 l -9.556,12.116 2.968,3.1 c 1.1067,1.1432 2.9306,1.1729 4.0738,0.0662 0.0224,-0.0217 0.0445,-0.0438 0.0662,-0.0662 l 31.734,-31.74 c 1.1424,-1.1226 1.1585,-2.9587 0.0359,-4.1011 -0.0118,-0.012 -0.0238,-0.024 -0.0359,-0.0359 L 62.007,39.232 c 6.078,-3.523 15.071,-10.958 20.368,-16.257 1.038,-0.991 4.464,-4.313 4.974,-5.436 1.2849,-2.53 0.7752,-5.6016 -1.258,-7.581 C 84.1338,7.93616 81.0923,7.41541 78.574,8.671 Z m -37.8,77.038 c -0.3393,0.3632 -0.9088,0.3826 -1.2721,0.0433 -0.0095,-0.0089 -0.0188,-0.018 -0.0279,-0.0273 L 37.728,83.9 52.89,64.67 51.167,62.947 33.445,79.711 10.357,56.6 c -0.3623,-0.3281 -0.39004,-0.8877 -0.062,-1.25 0.0197,-0.0217 0.0403,-0.0424 0.062,-0.062 L 36.111,29.525 66.532,59.946 Z M 72.509,52.655 c 0.3623,0.3305 0.388,0.8922 0.0575,1.2545 -0.0183,0.02 -0.0375,0.0392 -0.0575,0.0575 l -4.563,4.564 -30.421,-30.42 4.567,-4.568 c 0.3335,-0.3626 0.8978,-0.3861 1.2604,-0.0526 0.0182,0.0168 0.0358,0.0343 0.0526,0.0526 l 12.976,12.884 3.263,3.264 z M 85.544,16.677 c -1.385,1.7456 -2.9122,3.3735 -4.566,4.867 -5.37,5.372 -14.526,12.919 -20.437,16.215 l -2.248,-2.248 c 3.208,-5.823 10.773,-15 16.238,-20.465 1.4647,-1.6822 3.0982,-3.2096 4.875,-4.558 2.2813,-1.11793 5.037,-0.1748 6.1549,2.1065 0.6316,1.2889 0.6254,2.7988 -0.0169,4.0825 z"
         inkscape:connector-curvature="0"
         style="fill:#162b91;stroke:#162b91;stroke-width:2.17246246;stroke-miterlimit:4;stroke-dasharray:none" />
      <circle
         id="circle1134"
         r="1.913"
         cy="14.753"
         cx="81.317001"
         style="fill:#162b91;stroke:#162b91;stroke-width:2.17246246;stroke-miterlimit:4;stroke-dasharray:none" />
    </g>
  </g>
</svg>
