<?xml version="1.0" encoding="UTF-8" standalone="no"?>
<svg
   xmlns:dc="http://purl.org/dc/elements/1.1/"
   xmlns:cc="http://creativecommons.org/ns#"
   xmlns:rdf="http://www.w3.org/1999/02/22-rdf-syntax-ns#"
   xmlns:svg="http://www.w3.org/2000/svg"
   xmlns="http://www.w3.org/2000/svg"
   xmlns:sodipodi="http://sodipodi.sourceforge.net/DTD/sodipodi-0.dtd"
   xmlns:inkscape="http://www.inkscape.org/namespaces/inkscape"
   width="217px"
   height="29px"
   viewBox="0 0 217 29"
   version="1.1"
   id="svg12"
   sodipodi:docname="logo.svg"
   inkscape:version="0.92.3 (2405546, 2018-03-11)">
  <metadata
     id="metadata16">
    <rdf:RDF>
      <cc:Work
         rdf:about="">
        <dc:format>image/svg+xml</dc:format>
        <dc:type
           rdf:resource="http://purl.org/dc/dcmitype/StillImage" />
        <dc:title>logo</dc:title>
      </cc:Work>
    </rdf:RDF>
  </metadata>
  <sodipodi:namedview
     pagecolor="#ffffff"
     bordercolor="#666666"
     borderopacity="1"
     objecttolerance="10"
     gridtolerance="10"
     guidetolerance="10"
     inkscape:pageopacity="0"
     inkscape:pageshadow="2"
     inkscape:window-width="1920"
     inkscape:window-height="1001"
     id="namedview14"
     showgrid="false"
     inkscape:zoom="5.7480938"
     inkscape:cx="-19.456989"
     inkscape:cy="15.233682"
     inkscape:window-x="-9"
     inkscape:window-y="-9"
     inkscape:window-maximized="1"
     inkscape:current-layer="svg12" />
  <!-- Generator: Sketch 51.3 (57544) - http://www.bohemiancoding.com/sketch -->
  <title
     id="title2">logo</title>
  <desc
     id="desc4">Created with Sketch.</desc>
  <defs
     id="defs6">
    <clipPath
       clipPathUnits="userSpaceOnUse"
       id="clipPath1127">
      <rect
         style="display:inline;fill:none;fill-opacity:1;stroke:#808080;stroke-width:0.09999999;stroke-linecap:round;stroke-linejoin:round;stroke-miterlimit:4;stroke-dasharray:none;stroke-opacity:1"
         id="rect1129"
         width="33.381001"
         height="33.381001"
         x="162.687"
         y="350.97299" />
    </clipPath>
    <clipPath
       clipPathUnits="userSpaceOnUse"
       id="clipPath931">
      <rect
         style="opacity:0.98999999;fill:none;fill-opacity:1;stroke:#000000;stroke-width:0.30000001;stroke-miterlimit:4;stroke-dasharray:none"
         id="rect933"
         width="28.299999"
         height="28.299999"
         x="-0.070999995"
         y="0.31000075" />
    </clipPath>
  </defs>
  <text
     xml:space="preserve"
     style="font-style:normal;font-weight:normal;font-size:10.60453033px;line-height:1;font-family:sans-serif;letter-spacing:0px;word-spacing:0px;fill:#162b91;fill-opacity:1;stroke:none;stroke-width:0.99999994;"
     x="33.232315"
     y="19.409561"
     id="text838"><tspan
       sodipodi:role="line"
       id="tspan836"
       x="33.232315"
       y="19.409561"
       style="fill:#162b91;stroke-width:0.99999994;fill-opacity:1;">FARBENWEG</tspan></text>
  <g
     id="g929"
     clip-path="url(#clipPath931)">
    <rect
       y="-1.9820589"
       x="-0.50360823"
       height="31.936436"
       width="37.533253"
       id="rect1686-7-4-4"
       style="display:inline;fill:#ffffff;fill-opacity:1;stroke:#808080;stroke-width:0.37795281;stroke-linecap:round;stroke-linejoin:round;stroke-miterlimit:4;stroke-dasharray:none;stroke-opacity:1" />
    <path
       inkscape:export-ydpi="599.992"
       inkscape:export-xdpi="599.992"
       inkscape:export-filename="C:\Users\monika\farbenweg\blog-lithium\static\images\logo01.png"
       sodipodi:nodetypes="scscscss"
       inkscape:connector-curvature="0"
       id="path4524-5-8-9-0-6-7-2-8-9-0-0"
       d="M 27.765593,15.953624 C 30.165914,11.366452 11.876019,7.9091703 25.094282,1.5429816 8.3633481,5.5460563 21.256804,12.941859 20.04151,15.32829 c -2.130653,4.183906 -5.893134,5.159694 -15.1604624,11.446269 7.4067664,-0.846421 8.1012674,2.804015 11.6820794,1.220726 0.601567,-0.265988 0.307639,-0.738446 1.168973,-1.589714 1.769175,-1.686953 3.677468,-3.153146 5.443507,-4.770997 1.766039,-1.617852 3.389824,-3.387363 4.589986,-5.68095 z"
       style="display:inline;fill:#162b91;fill-opacity:1;stroke:#6fff00;stroke-width:0;stroke-linecap:butt;stroke-linejoin:miter;stroke-miterlimit:4;stroke-dasharray:none;stroke-opacity:1" />
    <path
       inkscape:export-ydpi="599.992"
       inkscape:export-xdpi="599.992"
       inkscape:export-filename="C:\Users\monika\farbenweg\blog-lithium\static\images\logo01.png"
       sodipodi:nodetypes="cssscccsc"
       inkscape:connector-curvature="0"
       id="path4524-5-8-4-6-1-1-1-1-3-7-2-7"
       d="m 0.0507785,26.934115 c 0.74475809,0.07185 0.9901082,-0.02148 2.492933,0.195737 1.5028249,0.217169 2.5953672,1.22135 3.8996343,0.930272 0.9043606,-0.20183 0.3788811,-0.709548 2.1731302,-1.733475 1.794249,-1.023927 4.15775,-2.422678 6.434773,-3.921988 1.552504,-1.100923 10.132901,-5.845159 8.4155,-8.05117 -4.363898,-5.873176 -7.987573,-4.8221542 -8.734768,-8.4182408 -1.133524,2.3678382 2.424341,5.1529778 3.179518,7.6839018 1.176092,3.941602 -9.8077726,7.301754 -17.86406207,12.182064"
       style="display:inline;fill:#57ff26;fill-opacity:1;stroke:none;stroke-width:0;stroke-linecap:round;stroke-linejoin:miter;stroke-miterlimit:4;stroke-dasharray:none;stroke-opacity:1" />
    <path
       inkscape:export-ydpi="599.992"
       inkscape:export-xdpi="599.992"
       inkscape:export-filename="C:\Users\monika\farbenweg\blog-lithium\static\images\logo01.png"
       sodipodi:nodetypes="scscs"
       inkscape:connector-curvature="0"
       id="path4524-5-8-4-2-0-2-5-0-1-8-9-1-9"
       d="m 14.640821,6.5124361 c 0.105308,2.3850481 5.940147,4.7951249 8.855771,7.8811449 C 19.846942,9.4230568 17.75103,7.7907257 17.741837,6.8657781 17.716487,4.3180878 22.814765,2.3794517 34.103988,-1.3507256 19.123517,1.7594839 14.545438,4.3521372 14.640821,6.5124361 Z"
       style="display:inline;fill:#ffcc00;fill-opacity:1;stroke:#ffff00;stroke-width:0;stroke-linecap:butt;stroke-linejoin:miter;stroke-miterlimit:4;stroke-dasharray:none;stroke-opacity:1" />
    <g
       style="display:inline;fill:#000000;fill-opacity:1;stroke-width:4.13387775"
       id="g1081-2-7-4"
       transform="matrix(0.97247599,0,0,0.85956939,-73.623176,-300.54922)">
      <g
         id="g856-8-5-7-2-1-1-0-1"
         inkscape:export-filename="C:\Users\monika\farbenweg\blog-lithium\static\images\logo01.png"
         inkscape:export-xdpi="599.992"
         inkscape:export-ydpi="599.992"
         transform="matrix(0.45121061,0,0,0.48361995,68.236003,334.45486)"
         style="fill:#000000;fill-opacity:1;stroke-width:8.84944248">
        <path
           sodipodi:nodetypes="scsssas"
           inkscape:connector-curvature="0"
           id="path4601-8-2-9-08-5-5-0-4-5-6"
           d="m 25.618241,89.707554 c 2.739832,-1.388564 11.812928,-28.136772 12.343157,-44.063312 11.078484,11.72393 -1.477292,41.440453 -6.586061,44.796966 -1.277192,0.839128 -2.446846,1.299624 -3.440097,1.496662 -0.993251,0.197039 -1.039131,0.315569 -1.61071,0.100866 -0.571578,-0.214704 -1.213674,-0.14133 -1.400679,-0.640876 -0.213811,-0.571154 0.0094,-1.343165 0.69439,-1.690306 z"
           style="fill:#000000;fill-opacity:1;stroke:#000000;stroke-width:0;stroke-linecap:butt;stroke-linejoin:miter;stroke-miterlimit:4;stroke-dasharray:none;stroke-opacity:1" />
        <ellipse
           rx="4.2759948"
           ry="5.3393188"
           cx="32.278233"
           cy="50.389256"
           transform="rotate(-8.1226391)"
           id="path4603-1-0-9-1-6-5-9-0-3-9"
           style="fill:#000000;fill-opacity:1;stroke:#000000;stroke-width:0;stroke-linecap:round;stroke-linejoin:round;stroke-miterlimit:4;stroke-dasharray:none;stroke-opacity:1" />
        <path
           sodipodi:nodetypes="cassc"
           inkscape:connector-curvature="0"
           id="path4607-1-8-1-6-0-8-5-3-6-3"
           d="m 38.74539,64.699832 c 2.96911,3.762299 6.926111,5.1548 10.742231,6.600206 2.800479,1.06072 4.840247,1.420709 8.699708,1.437422 2.136277,0.0093 2.433522,4.080215 0.707551,4.87843 -5.543672,2.563799 -16.90226,-1.762894 -20.26283,-3.726534"
           style="fill:#000000;fill-opacity:1;stroke:#000000;stroke-width:0;stroke-linecap:butt;stroke-linejoin:miter;stroke-miterlimit:4;stroke-dasharray:none;stroke-opacity:1" />
        <path
           sodipodi:nodetypes="czzc"
           inkscape:connector-curvature="0"
           id="path4607-8-4-0-7-6-4-4-9-9-7-7"
           d="m 37.60348,48.370783 c 5.326257,7.181083 12.186522,11.770491 15.72752,11.680558 3.540998,-0.08994 1.751015,4.869637 -1.685691,4.003635 C 48.208603,63.188974 40.125072,60.58814 37.9907,55.330229"
           style="fill:#000000;fill-opacity:1;stroke:#000000;stroke-width:0;stroke-linecap:butt;stroke-linejoin:miter;stroke-miterlimit:4;stroke-dasharray:none;stroke-opacity:1" />
        <path
           sodipodi:nodetypes="czsc"
           inkscape:connector-curvature="0"
           id="path4607-8-9-9-3-7-3-4-0-4-1-4-3"
           d="m 38.946992,52.244332 c -6.717797,8.050795 -7.612567,11.296123 -10.850947,16.638342 -3.238378,5.34222 1.175816,5.797417 2.40261,3.785848 3.289371,-5.393575 8.283743,-11.66018 9.436575,-14.7232"
           style="fill:#000000;fill-opacity:1;stroke:#000000;stroke-width:0;stroke-linecap:butt;stroke-linejoin:miter;stroke-miterlimit:4;stroke-dasharray:none;stroke-opacity:1" />
      </g>
    </g>
  </g>
</svg>
